Normalized EMG Linear Envelopes
nRows=153
nColumns=4

endheader
time	 med_gas_r	  soleus_r	 tib_ant_r	
2.93731	  0.096714	  0.100920	  0.026931	
2.99981	  0.086240	  0.102626	  0.030095	
3.0623	  0.080053	  0.104454	  0.032489	
3.1248	  0.078486	  0.105185	  0.033750	
3.1873	  0.079449	  0.104069	  0.034125	
3.24979	  0.081820	  0.102068	  0.034119	
3.31229	  0.084946	  0.101081	  0.033950	
3.37478	  0.086775	  0.103304	  0.033461	
3.43728	  0.085563	  0.108979	  0.032479	
3.49978	  0.082523	  0.114468	  0.031167	
3.56227	  0.080602	  0.115935	  0.029878	
3.62477	  0.081426	  0.113253	  0.028789	
3.68726	  0.084292	  0.108051	  0.027916	
3.74976	  0.087000	  0.101558	  0.027342	
3.81226	  0.087878	  0.095599	  0.027138	
3.87475	  0.087723	  0.092408	  0.027203	
3.93725	  0.088469	  0.093187	  0.027409	
3.99974	  0.090146	  0.098268	  0.027826	
4.06224	  0.091257	  0.106849	  0.028641	
4.12474	  0.091144	  0.115599	  0.029836	
4.18723	  0.089923	  0.120272	  0.030992	
4.24973	  0.087730	  0.119558	  0.031565	
4.31222	  0.085640	  0.115549	  0.031431	
4.37472	  0.085422	  0.111308	  0.030986	
4.43722	  0.087278	  0.109293	  0.030672	
4.49971	  0.089292	  0.110005	  0.030751	
4.56221	  0.089487	  0.110575	  0.031682	
4.6247	  0.087810	  0.106894	  0.034407	
4.6872	  0.086204	  0.098970	  0.040363	
4.7497	  0.086539	  0.092890	  0.051614	
4.81219	  0.088723	  0.096428	  0.069471	
4.87469	  0.091325	  0.113805	  0.090761	
4.93718	  0.093516	  0.144821	  0.107472	
4.99968	  0.096188	  0.184275	  0.113754	
5.06218	  0.100655	  0.217670	  0.111648	
5.12467	  0.106325	  0.225768	  0.107797	
5.18717	  0.111774	  0.204069	  0.106852	
5.24966	  0.117188	  0.169687	  0.108743	
5.31216	  0.123876	  0.142332	  0.110489	
5.37466	  0.134622	  0.129270	  0.110261	
5.43715	  0.153604	  0.128327	  0.110193	
5.49965	  0.178580	  0.132683	  0.116419	
5.56214	  0.198244	  0.134002	  0.136976	
5.62464	  0.207138	  0.128593	  0.178308	
5.68714	  0.211441	  0.120234	  0.240023	
5.74963	  0.213188	  0.116059	  0.309344	
5.81213	  0.208403	  0.121242	  0.366128	
5.87462	  0.201883	  0.135498	  0.398853	
5.93712	  0.203921	  0.151404	  0.409729	
5.99962	  0.218241	  0.158987	  0.406312	
6.06211	  0.243381	  0.155572	  0.398225	
6.12461	  0.274037	  0.148439	  0.396737	
6.1871	  0.299894	  0.145897	  0.408488	
6.2496	  0.313340	  0.149011	  0.430391	
6.3121	  0.316174	  0.153658	  0.452040	
6.37459	  0.315112	  0.157031	  0.464334	
6.43709	  0.312417	  0.158498	  0.465953	
6.49958	  0.304835	  0.157264	  0.459785	
6.56208	  0.292440	  0.154005	  0.447977	
6.62458	  0.280824	  0.151685	  0.435723	
6.68707	  0.274380	  0.150656	  0.433293	
6.74957	  0.275083	  0.147587	  0.446386	
6.81206	  0.285355	  0.142602	  0.466161	
6.87456	  0.303111	  0.141498	  0.473958	
6.93706	  0.317464	  0.149144	  0.458484	
6.99955	  0.321022	  0.165812	  0.425920	
7.06205	  0.318982	  0.187321	  0.390848	
7.12454	  0.316571	  0.204350	  0.362734	
7.18704	  0.311807	  0.208680	  0.343932	
7.24954	  0.305171	  0.204584	  0.332934	
7.31203	  0.300932	  0.204083	  0.326867	
7.37453	  0.300293	  0.208465	  0.325878	
7.43702	  0.304707	  0.208395	  0.332686	
7.49952	  0.316318	  0.201794	  0.346209	
7.56202	  0.328966	  0.195401	  0.363617	
7.62451	  0.333485	  0.192072	  0.387468	
7.68701	  0.330244	  0.190457	  0.420505	
7.7495	  0.325203	  0.190639	  0.456600	
7.812	  0.321437	  0.191303	  0.485638	
7.8745	  0.319792	  0.190222	  0.504102	
7.93699	  0.321426	  0.189059	  0.514840	
7.99949	  0.326538	  0.188138	  0.518286	
8.06198	  0.331173	  0.182123	  0.510001	
8.12448	  0.329326	  0.169659	  0.487623	
8.18698	  0.321702	  0.158517	  0.454921	
8.24947	  0.316554	  0.155114	  0.418816	
8.31197	  0.318104	  0.156997	  0.387417	
8.37446	  0.321675	  0.158137	  0.370674	
8.43696	  0.323111	  0.155588	  0.376632	
8.49946	  0.324524	  0.149745	  0.402505	
8.56195	  0.327000	  0.141951	  0.431359	
8.62445	  0.327948	  0.134606	  0.443183	
8.68694	  0.328659	  0.131687	  0.433080	
8.74944	  0.331159	  0.134821	  0.416140	
8.81194	  0.328848	  0.140059	  0.410071	
8.87443	  0.315450	  0.142462	  0.416608	
8.93693	  0.299115	  0.142519	  0.423306	
8.99942	  0.290997	  0.144643	  0.417456	
9.06192	  0.286368	  0.150065	  0.396824	
9.12442	  0.275079	  0.154274	  0.371857	
9.18691	  0.259002	  0.152239	  0.356070	
9.24941	  0.245777	  0.144030	  0.352493	
9.3119	  0.239731	  0.134203	  0.351591	
9.3744	  0.242905	  0.127394	  0.342383	
9.4369	  0.255778	  0.125445	  0.324914	
9.49939	  0.275359	  0.127674	  0.309914	
9.56189	  0.294220	  0.133186	  0.305874	
9.62438	  0.305222	  0.141718	  0.311712	
9.68688	  0.306496	  0.150830	  0.322253	
9.74938	  0.302091	  0.154938	  0.333792	
9.81187	  0.300811	  0.151603	  0.343906	
9.87437	  0.308407	  0.146002	  0.352068	
9.93686	  0.320069	  0.143805	  0.358689	
9.99936	  0.325416	  0.144122	  0.359427	
10.0619	  0.320173	  0.143671	  0.347750	
10.1244	  0.311167	  0.141575	  0.324744	
10.1868	  0.306066	  0.138269	  0.296992	
10.2493	  0.301006	  0.134301	  0.268355	
10.3118	  0.286148	  0.129194	  0.240704	
10.3743	  0.261342	  0.121419	  0.216228	
10.4368	  0.237946	  0.112071	  0.195789	
10.4993	  0.224137	  0.104893	  0.179254	
10.5618	  0.217750	  0.101167	  0.168179	
10.6243	  0.212654	  0.099238	  0.165204	
10.6868	  0.204127	  0.098625	  0.169328	
10.7493	  0.194546	  0.101034	  0.173928	
10.8118	  0.193571	  0.107621	  0.171647	
10.8743	  0.207193	  0.116209	  0.160717	
10.9368	  0.236424	  0.121849	  0.145520	
10.9993	  0.280834	  0.121249	  0.131497	
11.0618	  0.327256	  0.115820	  0.120790	
11.1243	  0.347935	  0.109156	  0.112833	
11.1868	  0.326143	  0.103467	  0.106628	
11.2493	  0.275672	  0.099840	  0.100645	
11.3118	  0.226230	  0.099123	  0.093009	
11.3743	  0.196905	  0.100861	  0.083883	
11.4368	  0.189657	  0.103341	  0.075848	
11.4993	  0.196248	  0.105457	  0.070972	
11.5618	  0.204584	  0.107204	  0.068681	
11.6243	  0.208731	  0.108804	  0.066737	
11.6868	  0.211074	  0.110411	  0.063902	
11.7492	  0.212213	  0.111834	  0.061370	
11.8117	  0.210431	  0.112291	  0.060528	
11.8742	  0.206719	  0.111407	  0.060304	
11.9367	  0.203242	  0.110209	  0.059231	
11.9992	  0.203297	  0.110378	  0.057571	
12.0617	  0.209182	  0.112454	  0.055534	
12.1242	  0.217389	  0.115484	  0.053479	
12.1867	  0.222493	  0.118614	  0.052890	
12.2492	  0.224103	  0.121919	  0.054155	
12.3117	  0.224669	  0.125433	  0.056855	
12.3742	  0.223004	  0.128731	  0.061935	
12.4367	  0.217375	  0.131657	  0.069594	
